<?xml version="1.0" standalone="no"?>
<!DOCTYPE svg PUBLIC "-//W3C//DTD SVG 20010904//EN"
 "http://www.w3.org/TR/2001/REC-SVG-20010904/DTD/svg10.dtd">
<svg version="1.0" xmlns="http://www.w3.org/2000/svg"
 width="726.000000pt" height="726.000000pt" viewBox="0 0 726.000000 726.000000"
 preserveAspectRatio="xMidYMid meet">
<metadata>
Created by potrace 1.11, written by Peter Selinger 2001-2013
</metadata>
<g transform="translate(0.000000,726.000000) scale(0.100000,-0.100000)"
fill="#000000" stroke="none">
<path d="M3506 6584 c-246 -96 -348 -377 -218 -604 52 -91 144 -163 251 -194
199 -58 424 55 503 254 18 44 22 75 22 155 0 93 -3 105 -34 170 -96 198 -327
295 -524 219z"/>
<path d="M2735 6181 c-3 -6 -12 -11 -18 -10 -27 3 -38 -2 -31 -13 5 -10 4 -10
-6 -1 -8 7 -20 9 -35 3 -13 -5 -26 -6 -29 -3 -3 4 -6 1 -6 -6 0 -7 -4 -10 -8
-7 -4 2 -39 -4 -77 -14 -39 -11 -74 -20 -78 -20 -5 0 -6 -10 -3 -22 6 -22 6
-22 -5 -2 -9 18 -14 19 -45 10 -21 -7 -32 -16 -29 -24 3 -9 0 -10 -15 -2 -24
13 -30 13 -30 -1 0 -5 5 -7 12 -3 7 4 8 3 4 -5 -6 -9 -11 -9 -23 0 -12 11 -14
10 -11 -7 3 -17 -2 -19 -39 -16 -37 2 -41 0 -38 -17 2 -11 9 -30 16 -43 12
-20 14 -21 17 -5 2 11 9 16 18 13 9 -3 30 1 49 8 18 8 35 12 38 10 2 -3 7 4
10 16 4 15 0 20 -14 20 -10 0 -18 -5 -16 -12 1 -6 -6 -14 -15 -16 -10 -2 -18
1 -18 7 0 6 7 8 15 4 10 -3 15 0 13 8 -2 9 6 14 22 14 18 0 24 -5 22 -17 -3
-17 -2 -17 78 10 8 3 18 4 23 4 4 -1 7 1 7 6 0 4 16 8 36 9 21 1 42 9 51 20 8
10 12 13 8 6 -4 -8 2 -10 17 -7 13 3 30 6 38 8 8 2 15 9 15 17 0 8 4 15 9 16
5 1 13 7 18 15 8 10 9 10 5 -2 -2 -8 -10 -14 -17 -12 -6 1 -10 -3 -8 -9 2 -7
12 -13 21 -15 9 -1 15 2 11 7 -3 5 3 8 13 7 46 -4 62 2 60 22 -1 11 -5 20 -10
20 -4 0 -6 4 -3 8 2 4 1 14 -3 21 -6 9 -10 10 -16 2z m8 -26 c-3 -9 -8 -14
-10 -11 -3 3 -2 9 2 15 9 16 15 13 8 -4z m-3 -28 c13 4 13 3 0 -6 -11 -8 -18
-6 -27 6 -7 9 -13 22 -13 27 1 6 6 2 13 -10 7 -12 19 -19 27 -17z m-112 1 c-2
-6 -15 -13 -29 -15 -18 -2 -20 -1 -9 6 8 5 18 7 22 5 4 -3 8 0 8 5 0 6 3 11 6
11 3 0 4 -5 2 -12z m-117 -37 c-10 -18 -15 -19 -31 -9 -10 7 -17 14 -15 17 3
2 12 -2 22 -10 15 -12 16 -12 10 4 -4 11 -3 16 3 12 6 -3 10 -1 10 6 0 7 3 10
6 7 3 -4 1 -16 -5 -27z m33 1 c-5 -14 -3 -14 10 2 9 11 16 15 16 9 0 -10 -29
-39 -31 -32 -6 17 -5 47 2 43 4 -2 6 -12 3 -22z m-117 -32 c-1 -10 -5 -17 -9
-14 -4 3 -5 11 -2 19 4 10 -1 12 -18 9 -21 -4 -21 -3 -3 5 25 11 34 6 32 -19z
m43 0 c-8 -5 -19 -10 -25 -10 -5 0 -3 5 5 10 8 5 20 10 25 10 6 0 3 -5 -5 -10z
m-180 -50 c8 -5 12 -11 10 -14 -3 -2 -14 2 -24 10 -22 15 -10 19 14 4z"/>
<path d="M4505 6181 c3 -5 1 -12 -4 -16 -6 -3 -8 -12 -4 -20 3 -9 -1 -15 -8
-16 -8 0 -3 -5 10 -10 14 -5 31 -7 38 -5 7 3 13 2 13 -3 0 -8 4 -9 51 -14 14
-2 31 -7 38 -11 7 -4 15 -5 18 -2 3 3 19 -2 35 -10 16 -8 33 -12 39 -9 5 4 16
1 24 -5 8 -6 19 -9 25 -5 5 3 10 0 10 -7 0 -11 2 -10 9 0 7 11 9 10 15 -3 3
-9 11 -13 16 -10 6 4 17 2 25 -5 18 -15 31 6 15 25 -7 9 -8 15 -2 15 13 0 23
-26 16 -43 -2 -7 4 -13 16 -14 11 -1 20 3 20 8 0 6 -5 7 -12 3 -7 -4 -8 -3 -4
5 9 14 26 5 26 -14 0 -8 9 -12 25 -10 14 1 28 -2 32 -8 4 -6 1 -7 -7 -2 -8 5
-11 4 -7 -2 10 -16 52 -10 52 7 0 8 4 18 8 21 12 9 -4 41 -19 35 -7 -3 -15 0
-18 7 -3 9 -5 9 -5 0 -1 -7 -6 -13 -12 -13 -5 0 -8 3 -6 8 3 4 -12 15 -34 24
-22 9 -37 13 -34 8 3 -5 1 -11 -5 -15 -5 -3 -10 0 -10 8 0 7 -23 21 -53 30
-68 21 -70 21 -57 -3 6 -11 7 -20 3 -20 -4 0 -1 -5 7 -11 12 -8 12 -10 1 -7
-8 2 -15 12 -17 22 -3 23 -24 47 -36 40 -5 -3 -15 -1 -22 5 -7 6 -25 12 -40
13 -14 1 -26 6 -26 10 0 4 -8 6 -17 6 -10 -1 -31 2 -46 5 -26 7 -27 6 -17 -14
8 -15 9 -19 1 -15 -6 4 -11 2 -11 -3 0 -6 -5 -11 -11 -11 -8 0 -8 4 0 14 17
20 4 41 -25 44 -14 1 -23 -2 -19 -7z m45 -15 c0 -3 -4 -8 -10 -11 -5 -3 -10
-1 -10 4 0 6 5 11 10 11 6 0 10 -2 10 -4z m70 -26 c0 -5 -5 -10 -11 -10 -5 0
-7 5 -4 10 3 6 8 10 11 10 2 0 4 -4 4 -10z m55 0 c3 -5 1 -10 -4 -10 -6 0 -11
5 -11 10 0 6 2 10 4 10 3 0 8 -4 11 -10z m-85 -14 c0 -3 -4 -8 -10 -11 -5 -3
-10 -1 -10 4 0 6 5 11 10 11 6 0 10 -2 10 -4z m60 -6 c0 -5 -4 -10 -10 -10 -5
0 -10 5 -10 10 0 6 5 10 10 10 6 0 10 -4 10 -10z m70 0 c13 -8 13 -10 -2 -10
-9 0 -20 5 -23 10 -8 13 5 13 25 0z m36 -37 c-3 -4 -6 -1 -6 6 0 7 -4 9 -10 6
-6 -4 -7 1 -3 11 6 15 7 15 15 -1 6 -9 7 -19 4 -22z m-139 21 c-3 -3 -12 -4
-19 -1 -8 3 -5 6 6 6 11 1 17 -2 13 -5z m90 -11 c10 -10 14 -15 8 -11 -6 4
-22 12 -36 17 -15 6 -18 10 -8 10 9 1 25 -7 36 -16z m122 -9 c-6 -8 -15 -12
-18 -8 -3 4 0 9 7 11 6 3 9 10 6 15 -4 7 -2 8 5 4 9 -6 9 -11 0 -22z m17 -16
c-9 -12 -16 -19 -16 -15 0 11 24 47 28 42 2 -2 -3 -14 -12 -27z m78 -3 c-4 -8
-11 -15 -16 -15 -6 0 -5 6 2 15 7 8 14 15 16 15 2 0 1 -7 -2 -15z m22 -10 c-3
-9 0 -15 9 -15 8 0 15 -5 15 -10 0 -7 -6 -7 -20 0 -16 9 -19 40 -3 40 3 0 3
-7 -1 -15z m79 -15 c3 -5 1 -10 -4 -10 -6 0 -11 5 -11 10 0 6 2 10 4 10 3 0 8
-4 11 -10z m-16 -45 c0 -5 -4 -3 -9 5 -5 8 -9 22 -9 30 0 16 17 -16 18 -35z"/>
<path d="M2260 6052 c0 -4 9 -8 20 -9 11 -1 18 2 15 8 -7 11 -35 12 -35 1z"/>
<path d="M5594 5803 c4 -7 2 -13 -3 -13 -6 0 -10 -11 -9 -25 2 -17 8 -25 21
-25 10 0 16 4 12 9 -9 15 15 25 28 12 9 -9 8 -11 -6 -5 -12 4 -17 2 -15 -7 2
-9 -6 -14 -22 -14 -15 0 -24 5 -22 13 1 6 -2 12 -8 12 -21 0 -9 -26 19 -42 29
-16 30 -15 46 5 15 22 15 22 6 1 -10 -21 -6 -34 11 -34 5 0 6 5 3 10 -3 6 -3
16 2 23 16 25 12 44 -12 55 -15 7 -26 8 -30 2 -4 -6 -12 -10 -18 -10 -7 0 -6
4 3 10 13 8 13 11 1 22 -10 10 -12 10 -7 1z"/>
<path d="M1650 5782 c0 -4 -14 -13 -30 -20 -17 -8 -27 -18 -23 -25 4 -6 0 -8
-10 -4 -9 3 -24 -1 -33 -11 -10 -9 -22 -17 -28 -17 -6 -1 -10 -6 -9 -12 1 -6
-3 -10 -10 -10 -31 1 -48 -4 -42 -12 3 -5 -4 -12 -15 -16 -11 -3 -20 -11 -20
-16 0 -5 -5 -8 -11 -6 -6 1 -13 -6 -14 -16 -2 -11 -7 -22 -11 -25 -4 -4 -4 1
-1 11 8 21 6 20 -40 -8 -33 -20 -44 -37 -21 -32 20 4 21 -38 1 -54 -10 -7 -15
-9 -10 -4 4 4 -1 18 -10 29 -18 21 -18 21 5 2 22 -19 22 -19 22 2 0 16 -5 20
-25 17 -33 -3 -43 -14 -25 -25 7 -5 15 -16 16 -25 4 -28 11 -28 47 -1 19 14
40 26 48 27 8 0 6 4 -6 9 -18 8 -17 9 7 9 15 1 31 8 36 17 5 9 13 17 18 17 5
1 8 6 6 10 -1 5 2 6 7 3 5 -3 16 -3 25 0 14 5 14 9 4 22 -11 13 -11 14 0 8 8
-5 34 1 63 15 45 22 63 39 39 39 -5 0 -10 5 -10 10 0 7 6 7 19 0 27 -14 31
-13 24 8 -6 15 -5 15 11 3 15 -13 18 -12 23 7 3 12 10 22 15 22 5 0 6 -5 2
-12 -4 -7 -3 -8 4 -4 14 9 16 36 3 36 -5 0 -13 9 -16 20 -6 19 -25 28 -25 12z
m12 -29 c-6 -3 -10 -9 -6 -14 3 -5 1 -9 -4 -9 -6 0 -13 7 -16 16 -3 8 -2 12 3
9 5 -3 13 0 16 6 4 5 10 7 14 3 3 -4 0 -9 -7 -11z m-38 -35 c-3 -4 -11 -8 -17
-7 -9 0 -9 2 0 5 7 3 9 13 6 22 -4 14 -3 14 5 2 6 -8 8 -18 6 -22z m-57 -30
c-3 -8 -6 -5 -6 6 -1 11 2 17 5 13 3 -3 4 -12 1 -19z m-28 -15 c-12 -15 -12
-16 6 -9 15 5 17 4 8 -5 -6 -6 -16 -8 -22 -5 -12 8 -3 36 11 36 6 0 4 -8 -3
-17z m-31 -15 c-3 -7 -15 -14 -27 -16 -22 -4 -22 -4 -4 -25 12 -13 13 -17 3
-12 -8 5 -26 9 -40 8 -24 -2 -25 -2 -2 5 13 4 23 12 22 17 0 6 8 11 20 13 11
2 18 8 15 13 -4 5 -1 9 5 9 7 0 10 -6 8 -12z m-85 -73 c4 -8 3 -16 -1 -19 -4
-3 -9 4 -9 15 -2 23 3 25 10 4z m-33 -6 c12 -8 10 -9 -7 -4 -19 5 -22 3 -17
-12 5 -14 4 -15 -4 -3 -19 25 0 38 28 19z"/>
<path d="M5675 5741 c3 -5 1 -12 -5 -16 -13 -8 -5 -51 9 -47 6 1 11 -2 11 -7
0 -5 11 -4 24 2 20 10 22 15 13 27 -10 13 -10 13 5 1 19 -15 15 -31 -8 -31 -8
0 -14 -7 -14 -16 0 -8 4 -12 10 -9 5 3 19 -2 30 -13 11 -10 33 -25 48 -33 15
-8 30 -19 35 -26 4 -7 15 -9 24 -6 11 4 14 3 9 -5 -5 -8 0 -12 14 -12 14 0 19
-4 14 -12 -5 -7 -2 -9 9 -5 11 4 14 2 10 -9 -3 -7 0 -14 6 -14 6 0 20 -8 31
-17 11 -10 23 -16 25 -13 2 3 11 -4 19 -15 14 -17 17 -18 26 -5 5 8 10 11 10
6 0 -11 29 25 30 37 0 4 -6 7 -13 7 -7 0 -18 9 -25 21 -9 14 -20 19 -33 16
-10 -3 -16 -1 -13 4 7 12 -14 39 -29 39 -6 0 -3 -6 8 -13 14 -11 15 -16 5 -22
-8 -5 -11 -4 -7 2 4 6 0 13 -8 17 -8 3 -15 12 -15 21 0 8 -7 15 -15 15 -8 0
-15 5 -15 10 0 6 -9 10 -19 10 -11 0 -21 6 -24 13 -3 9 -7 9 -20 -2 -14 -11
-18 -11 -23 3 -3 9 -11 13 -17 9 -6 -4 -7 -1 -2 7 6 10 11 10 20 -3 7 -9 15
-14 18 -10 13 12 7 19 -28 33 -19 8 -35 18 -35 22 0 5 -4 6 -10 3 -5 -3 -10
-3 -10 2 0 9 -56 43 -71 43 -6 0 -8 -4 -4 -9z m35 -37 c0 -8 -4 -14 -10 -14
-5 0 -7 7 -4 15 5 11 1 14 -12 9 -15 -5 -16 -4 -4 4 17 13 30 6 30 -14z m52
-46 c-7 -7 -12 -8 -12 -2 0 14 12 26 19 19 2 -3 -1 -11 -7 -17z m28 -29 c0 -6
-4 -7 -10 -4 -5 3 -10 11 -10 16 0 6 5 7 10 4 6 -3 10 -11 10 -16z m17 -21
c-3 -8 -6 -5 -6 6 -1 11 2 17 5 13 3 -3 4 -12 1 -19z m41 -5 c0 -21 -2 -23
-10 -9 -5 9 -6 21 -3 26 10 16 13 12 13 -17z m42 -3 c0 -5 -7 -7 -15 -4 -8 4
-15 8 -15 10 0 2 7 4 15 4 8 0 15 -4 15 -10z m15 -19 c-3 -6 -11 -11 -16 -11
-5 0 -4 6 3 14 14 16 24 13 13 -3z m32 -42 c1 -22 1 -23 -4 -1 -2 12 -9 20
-14 17 -5 -4 -9 -1 -9 5 0 23 25 3 27 -21z m48 -18 c3 -5 1 -12 -5 -16 -6 -4
-7 -11 -4 -17 4 -7 2 -8 -5 -4 -9 6 -9 11 1 24 11 13 10 15 -4 9 -10 -3 -18
-2 -18 3 0 13 27 13 35 1z m45 -22 c12 -8 10 -9 -7 -4 -19 5 -22 3 -17 -12 5
-14 4 -15 -4 -3 -19 25 0 38 28 19z"/>
<path d="M1248 5519 c-10 -5 -18 -16 -18 -24 0 -8 -5 -17 -12 -21 -8 -5 -9 -1
-4 12 6 16 5 17 -6 6 -11 -11 -9 -17 9 -31 12 -10 19 -22 15 -26 -4 -5 -2 -5
5 -2 6 4 14 1 17 -5 3 -7 4 -2 3 12 -2 22 1 25 27 22 24 -3 27 0 22 15 -4 10
-8 23 -9 28 -2 10 -18 25 -27 25 -3 -1 -13 -5 -22 -11z m19 -5 c-3 -4 4 -15
16 -26 l22 -19 -27 17 c-24 14 -30 34 -11 34 4 0 4 -3 0 -6z m-26 -47 c-10 -9
-11 -8 -5 6 3 10 9 15 12 12 3 -3 0 -11 -7 -18z"/>
<path d="M1265 5450 c3 -5 8 -10 11 -10 2 0 4 5 4 10 0 6 -5 10 -11 10 -5 0
-7 -4 -4 -10z"/>
<path d="M1310 5443 c-22 -9 -29 -23 -23 -52 2 -14 5 -26 6 -26 3 -1 152 -132
197 -172 19 -17 44 -40 56 -50 79 -68 151 -132 174 -153 15 -14 55 -50 90 -80
35 -30 68 -60 74 -65 6 -6 45 -39 86 -75 41 -36 77 -67 80 -71 3 -3 66 -58
140 -123 74 -65 140 -124 145 -130 6 -6 24 -22 40 -35 17 -12 48 -39 70 -59
40 -37 170 -153 234 -208 18 -16 43 -38 55 -49 12 -11 53 -47 91 -80 37 -33
80 -71 95 -85 15 -14 51 -45 80 -70 29 -25 67 -58 83 -73 17 -15 57 -51 90
-80 32 -29 69 -61 81 -72 24 -21 38 -33 171 -150 44 -38 102 -90 128 -115 75
-70 93 -72 156 -15 19 16 39 35 45 40 6 6 34 30 62 55 27 25 83 74 123 110 41
36 79 70 85 75 6 6 40 35 76 65 35 30 73 64 85 75 11 11 40 38 66 60 65 58
188 167 214 190 13 11 49 43 81 70 31 28 62 55 68 60 14 12 260 231 300 265
41 35 46 40 101 90 28 25 82 72 120 106 89 77 337 295 351 309 6 5 41 37 79
70 37 33 73 65 79 70 6 6 47 42 91 80 232 203 264 235 260 257 -10 51 147 48
-2349 47 -1276 0 -2328 -3 -2336 -6z"/>
<path d="M1199 5107 l-24 -13 -3 -1399 c-1 -770 0 -1410 3 -1422 3 -12 14 -27
26 -33 22 -12 38 -5 89 40 14 12 36 31 50 43 14 12 57 49 95 82 39 33 75 64
81 70 6 5 39 35 74 65 35 30 74 65 86 78 13 12 25 22 28 22 3 0 16 10 29 23
20 19 50 45 167 147 14 12 49 43 79 68 30 26 62 54 71 62 9 8 47 42 85 75 39
32 77 66 86 75 9 8 40 35 69 60 29 25 62 53 74 63 12 11 45 40 75 65 30 26 59
52 65 57 6 6 63 55 126 110 63 55 124 108 135 119 11 10 35 30 53 44 36 28 55
63 46 86 -3 8 -46 49 -95 91 -49 42 -95 82 -101 88 -7 7 -62 55 -123 107 -60
52 -119 103 -130 113 -11 10 -58 51 -105 90 -46 40 -96 83 -110 97 -14 14 -46
42 -70 62 -25 20 -58 49 -75 63 -16 15 -52 46 -79 69 -27 22 -58 50 -70 61
-12 11 -53 47 -91 80 -83 72 -133 115 -155 135 -9 8 -45 40 -81 70 -103 88
-121 104 -148 129 -14 13 -48 42 -75 65 -26 22 -60 51 -75 64 -42 37 -55 42
-82 29z"/>
<path d="M5958 5058 c-40 -35 -78 -67 -84 -73 -6 -5 -35 -31 -65 -57 -30 -25
-63 -54 -75 -65 -12 -10 -49 -43 -84 -73 -35 -30 -71 -62 -80 -70 -8 -8 -63
-55 -120 -104 -58 -49 -109 -94 -115 -100 -5 -6 -39 -36 -75 -66 -36 -30 -81
-69 -100 -86 -49 -44 -280 -245 -350 -304 -14 -12 -41 -36 -60 -53 -19 -18
-82 -72 -140 -122 -58 -49 -110 -94 -116 -100 -6 -5 -27 -24 -47 -42 -20 -17
-39 -42 -42 -55 -7 -28 2 -39 100 -123 39 -33 72 -62 75 -65 3 -3 39 -35 80
-70 41 -36 89 -77 105 -91 33 -30 102 -89 189 -164 32 -27 73 -63 91 -80 19
-16 44 -39 57 -49 35 -30 237 -205 288 -251 59 -52 91 -79 225 -195 61 -52
124 -106 140 -121 60 -54 91 -82 134 -118 24 -20 62 -53 85 -74 51 -46 80 -55
106 -32 19 17 19 50 19 1423 0 1284 -1 1408 -16 1424 -26 29 -48 21 -125 -44z"/>
<path d="M6473 5063 c-23 -24 -30 -43 -15 -43 4 0 15 -12 25 -27 14 -22 17
-24 15 -8 -2 15 3 20 22 22 20 1 21 0 3 -3 -19 -5 -20 -9 -12 -37 4 -18 25
-47 46 -66 21 -19 31 -30 23 -25 -11 6 -11 2 3 -16 10 -14 27 -39 38 -57 11
-17 26 -34 34 -37 8 -3 12 -12 9 -21 -3 -8 -1 -15 6 -15 6 0 8 -4 5 -10 -3 -5
-1 -10 4 -10 6 0 11 -5 11 -11 0 -8 44 -80 66 -108 6 -7 54 29 54 40 0 6 -5 7
-11 4 -6 -4 -10 -1 -8 6 3 28 -1 49 -12 49 -5 0 -8 -4 -5 -8 2 -4 -4 -8 -14
-9 -25 -2 -32 9 -18 27 8 12 9 12 4 -2 -6 -21 7 -24 23 -4 9 11 8 15 -4 20 -8
3 -14 11 -13 18 2 8 -6 13 -19 12 -13 0 -23 3 -23 8 0 4 7 8 15 8 11 0 5 14
-20 50 -19 27 -35 54 -35 59 0 5 -7 11 -15 15 -8 3 -14 9 -13 13 4 10 -38 64
-44 58 -2 -3 -10 11 -17 30 -7 20 -16 33 -21 30 -5 -3 -11 4 -15 15 -4 11 -11
18 -16 15 -5 -4 -9 0 -9 8 0 29 -24 34 -47 10z m28 -26 c-5 -5 -17 -7 -27 -4
-16 4 -15 5 3 6 17 1 21 6 17 19 -5 14 -4 15 5 2 5 -8 6 -19 2 -23z m69 -47
c0 -5 -4 -10 -10 -10 -5 0 -10 5 -10 10 0 6 5 10 10 10 6 0 10 -4 10 -10z m13
-63 c-4 -6 0 -8 10 -4 10 3 17 2 17 -4 0 -6 -8 -9 -17 -7 -10 2 -17 9 -16 14
1 6 -8 16 -19 23 -18 11 -20 11 -15 -3 4 -9 2 -16 -3 -16 -11 0 -14 23 -4 33
10 10 55 -24 47 -36z m65 -59 c8 -10 12 -18 7 -18 -14 0 -34 34 -34 55 l1 20
5 -20 c3 -11 12 -28 21 -37z m-28 -2 c0 -2 -7 -7 -16 -10 -8 -3 -12 -2 -9 4 6
10 25 14 25 6z m10 -20 c0 -3 -4 -8 -10 -11 -5 -3 -10 -1 -10 4 0 6 5 11 10
11 6 0 10 -2 10 -4z m13 -21 c-3 -9 -8 -14 -10 -11 -3 3 -2 9 2 15 9 16 15 13
8 -4z m24 -7 c-2 -12 -10 -24 -18 -26 -11 -3 -12 -2 -1 6 8 5 13 12 13 16 -2
15 -1 26 4 26 3 0 3 -10 2 -22z m43 -38 c0 -5 -4 -10 -10 -10 -5 0 -10 5 -10
10 0 6 5 10 10 10 6 0 10 -4 10 -10z m7 -62 c4 1 8 -3 8 -10 0 -6 -6 -12 -13
-14 -7 -1 -8 0 -2 3 5 2 10 9 10 14 0 6 -4 8 -9 4 -10 -5 -31 25 -31 42 1 4 7
-3 15 -17 7 -14 17 -24 22 -22z m11 -63 c-3 -3 -9 2 -12 12 -6 14 -5 15 5 6 7
-7 10 -15 7 -18z m40 -2 c-10 -2 -18 -9 -18 -15 0 -6 -3 -9 -6 -5 -10 10 6 27
24 26 15 -1 15 -2 0 -6z m17 -33 c3 -6 -1 -7 -9 -4 -18 7 -21 14 -7 14 6 0 13
-4 16 -10z"/>
<path d="M747 5037 c-8 -12 -25 -33 -38 -46 -19 -21 -20 -24 -5 -18 16 6 17 5
6 -8 -7 -8 -17 -12 -23 -8 -7 4 -8 0 -3 -13 4 -10 4 -15 0 -11 -12 12 -33 -13
-27 -31 3 -9 3 -14 -2 -10 -13 12 -35 -12 -28 -29 4 -10 2 -14 -4 -10 -6 4
-14 0 -17 -9 -9 -24 -7 -27 9 -14 13 10 18 11 28 1 9 -10 8 -11 -4 -6 -10 4
-20 1 -24 -4 -3 -6 -10 -9 -15 -6 -5 3 -23 -15 -40 -40 -17 -25 -28 -45 -25
-45 4 0 -1 -8 -11 -17 -15 -16 -15 -17 1 -23 9 -3 16 -10 15 -14 -2 -9 19 -26
33 -26 5 0 6 4 3 9 -3 5 1 12 10 15 8 3 12 10 9 16 -3 5 0 10 7 11 7 0 2 5
-11 10 -23 9 -24 11 -8 26 14 14 19 15 29 4 11 -10 10 -11 -3 -6 -10 4 -20 2
-24 -4 -14 -24 34 -10 49 14 9 14 13 25 9 25 -3 0 4 11 17 25 23 25 23 25 4
40 -10 8 -15 15 -10 15 6 0 1 7 -10 16 -18 14 -18 15 4 4 12 -6 20 -15 17 -19
-6 -11 25 -24 34 -15 3 4 0 9 -7 11 -9 4 -2 12 18 25 22 13 31 25 27 37 -2 10
5 29 16 42 l19 24 -16 -27 c-9 -16 -14 -28 -11 -28 11 0 30 24 33 42 3 19 -14
33 -23 18 -3 -5 -11 -10 -18 -10 -6 0 -2 6 9 14 16 12 21 12 34 1 14 -12 17
-11 28 6 9 15 10 24 2 37 -9 14 -11 14 -7 1 3 -9 1 -22 -4 -30 -8 -12 -10 -12
-8 1 5 52 -20 73 -44 37z m27 -12 c3 -8 1 -15 -4 -15 -6 0 -10 7 -10 15 0 8 2
15 4 15 2 0 6 -7 10 -15z m-29 -25 c-3 -5 -12 -10 -18 -10 -7 0 -6 4 3 10 19
12 23 12 15 0z m-15 -50 c0 -5 -5 -10 -11 -10 -5 0 -7 5 -4 10 3 6 8 10 11 10
2 0 4 -4 4 -10z m-15 -30 c-3 -5 -11 -10 -16 -10 -6 0 -7 5 -4 10 3 6 11 10
16 10 6 0 7 -4 4 -10z m15 -20 c0 -5 -8 -10 -17 -10 -15 0 -16 2 -3 10 19 12
20 12 20 0z m-40 -20 c0 -5 -4 -10 -10 -10 -5 0 -10 5 -10 10 0 6 5 10 10 10
6 0 10 -4 10 -10z m-37 -77 c-7 -2 -19 -2 -25 0 -7 3 -2 5 12 5 14 0 19 -2 13
-5z m-32 -18 c5 4 6 -2 2 -11 -5 -13 -3 -15 7 -9 9 6 11 4 5 -5 -6 -10 -11 -9
-22 5 -7 11 -13 24 -12 29 0 6 3 5 6 -2 2 -6 9 -10 14 -7z m-50 -41 c-11 -15
-21 -22 -21 -16 0 6 5 14 10 17 6 4 7 11 4 17 -4 7 -2 8 4 4 7 -4 12 -2 12 5
0 7 3 10 6 6 4 -3 -3 -18 -15 -33z m-7 -46 c-3 -4 0 -8 7 -8 7 0 10 -3 6 -6
-3 -3 -16 1 -28 9 -22 16 -22 16 -1 14 11 0 18 -5 16 -9z"/>
<path d="M491 4661 c-6 -10 -7 -21 -4 -25 3 -3 2 -6 -4 -6 -6 0 -13 -9 -16
-20 -6 -24 24 -45 41 -28 11 11 5 41 -7 34 -4 -3 -7 4 -7 15 0 19 1 19 13 3 7
-10 13 -22 13 -27 0 -4 6 -5 13 -1 6 4 3 -2 -7 -14 -11 -12 -17 -24 -15 -27 8
-7 23 9 41 42 16 31 16 33 0 42 -9 4 -22 6 -29 4 -6 -2 -14 1 -18 6 -3 6 0 8
8 5 8 -3 18 -1 22 5 3 7 -2 11 -14 11 -11 0 -25 -8 -30 -19z m6 -67 c-3 -3
-12 -4 -19 -1 -8 3 -5 6 6 6 11 1 17 -2 13 -5z"/>
<path d="M343 4095 c-293 -67 -431 -401 -267 -646 101 -151 265 -219 443 -182
201 42 345 229 334 436 -13 257 -262 448 -510 392z"/>
<path d="M6715 4079 c-188 -58 -307 -235 -292 -433 16 -214 182 -372 399 -382
121 -5 221 32 302 110 94 91 137 196 132 325 -11 274 -278 462 -541 380z"/>
<path d="M2985 3514 c-22 -20 -73 -66 -114 -103 -41 -36 -85 -75 -97 -86 -12
-11 -48 -43 -81 -71 -32 -29 -70 -63 -84 -75 -14 -13 -59 -53 -99 -89 -40 -36
-78 -69 -84 -75 -6 -5 -49 -44 -96 -85 -47 -41 -103 -91 -125 -111 -56 -52
-91 -83 -159 -142 -86 -76 -86 -76 -171 -152 -44 -38 -86 -77 -95 -85 -9 -8
-52 -46 -96 -84 -43 -39 -83 -75 -89 -80 -5 -6 -28 -27 -50 -46 -77 -66 -199
-175 -233 -208 -28 -27 -33 -37 -27 -60 4 -15 9 -29 12 -32 2 -3 1055 -5 2340
-5 2235 0 2335 1 2348 18 23 32 7 59 -81 134 -35 30 -155 136 -184 163 -55 50
-107 96 -185 165 -44 39 -102 90 -129 115 -63 58 -58 54 -146 130 -41 36 -95
84 -120 107 -25 23 -56 51 -69 62 -14 12 -52 46 -85 76 -34 29 -71 62 -83 72
-12 11 -54 49 -95 85 -40 37 -82 75 -94 85 -31 27 -161 142 -212 188 -144 129
-224 199 -244 214 -17 11 -22 11 -37 -5 -9 -11 -43 -41 -75 -69 -32 -27 -73
-63 -91 -80 -54 -50 -118 -108 -165 -149 -25 -22 -83 -74 -129 -115 -46 -42
-90 -80 -98 -84 -23 -14 -56 0 -99 40 -22 21 -74 67 -115 103 -41 36 -86 76
-100 90 -15 14 -44 40 -65 59 -39 33 -133 116 -209 185 -22 19 -42 36 -45 36
-3 0 -23 -17 -45 -36z"/>
<path d="M6860 2922 c0 -5 10 -14 23 -21 21 -11 21 -11 0 -6 -12 3 -25 0 -29
-6 -5 -8 -2 -10 7 -5 8 4 6 1 -3 -7 -10 -8 -15 -17 -11 -20 3 -4 1 -7 -6 -7
-7 0 -11 -6 -8 -14 3 -8 1 -16 -4 -18 -6 -2 -11 -11 -12 -20 -2 -9 -9 -23 -15
-31 -9 -10 -10 -17 -2 -22 7 -4 7 -12 0 -24 -5 -10 -6 -21 -3 -25 3 -3 1 -6
-5 -6 -15 0 -15 6 -2 31 6 10 7 19 3 19 -4 -1 -18 -21 -30 -46 -13 -25 -17
-42 -10 -38 6 4 5 -1 -4 -12 -39 -45 -80 -127 -74 -148 5 -16 4 -18 -4 -6 -9
13 -12 12 -25 -5 -21 -27 -20 -55 2 -55 15 0 15 2 2 11 -13 9 -13 10 0 6 8 -2
14 -11 12 -21 -4 -20 21 -21 37 -2 13 15 1 28 -27 32 -8 2 -17 5 -20 8 -8 9
30 2 46 -8 9 -5 18 -1 27 10 22 29 19 46 -7 39 -22 -6 -22 -5 -3 7 22 14 36
56 14 42 -8 -4 -10 -3 -5 5 12 18 27 2 22 -25 -3 -13 0 -24 5 -24 5 0 9 7 9
15 0 8 5 15 11 15 7 0 9 10 7 24 -4 19 -1 23 11 18 9 -3 13 -2 9 3 -4 4 -4 13
1 19 18 23 81 146 75 146 -4 0 -1 6 5 13 6 8 22 43 35 78 24 65 24 65 4 66
-12 1 -24 6 -27 10 -8 11 -31 15 -31 5z m54 -56 c-3 -9 -10 -16 -15 -16 -5 0
-4 9 3 20 14 22 21 20 12 -4z m-24 -27 c12 -8 10 -9 -7 -4 -27 7 -29 2 -7 -19
8 -9 11 -16 5 -16 -13 0 -32 35 -24 44 9 8 16 7 33 -5z m-40 -39 c0 -5 -4 -10
-10 -10 -5 0 -10 5 -10 10 0 6 5 10 10 10 6 0 10 -4 10 -10z m25 -20 c-3 -5
-11 -10 -16 -10 -6 0 -7 5 -4 10 3 6 11 10 16 10 6 0 7 -4 4 -10z m-12 -44
c-4 -6 -8 -6 -10 1 -3 7 -10 11 -16 9 -7 -1 -9 -1 -4 1 4 3 4 9 1 15 -3 5 3 4
14 -3 12 -7 18 -18 15 -23z m-13 -23 c0 -3 -7 -3 -15 1 -8 3 -15 0 -15 -6 0
-6 -3 -9 -6 -5 -11 10 6 26 21 20 8 -3 15 -7 15 -10z m-25 -33 c3 -5 1 -10 -4
-10 -6 0 -11 5 -11 10 0 6 2 10 4 10 3 0 8 -4 11 -10z m-41 -32 c-3 -4 -1 -8
5 -8 5 0 12 5 14 10 3 6 4 5 3 -2 -5 -23 -29 -14 -33 12 -2 18 -1 21 6 10 5
-8 7 -18 5 -22z m-11 -45 c-7 -2 -19 -2 -25 0 -7 3 -2 5 12 5 14 0 19 -2 13
-5z m-52 -26 c-10 -9 -11 -8 -5 6 3 10 9 15 12 12 3 -3 0 -11 -7 -18z m48 -21
c-3 -3 -11 5 -18 17 -13 21 -12 21 5 5 10 -10 16 -20 13 -22z m-49 -80 c-7 -7
-14 -6 -21 1 -9 9 -7 12 9 10 14 -1 18 -5 12 -11z"/>
<path d="M398 2886 c-16 -5 -28 -16 -28 -23 0 -29 90 -214 100 -208 5 3 6 -3
3 -14 -3 -10 0 -22 6 -25 7 -5 9 0 5 11 -5 15 -4 15 4 3 6 -8 8 -18 5 -23 -8
-13 18 -58 29 -51 5 3 8 0 7 -7 -4 -17 19 -59 40 -77 13 -11 13 -12 1 -7 -13
6 -13 5 0 -7 8 -7 23 -27 32 -43 15 -28 40 -47 37 -28 -3 19 2 27 9 15 7 -9
13 -8 27 8 10 11 13 20 7 20 -7 0 -12 8 -12 17 0 13 -3 14 -12 5 -15 -15 -28
-15 -28 -1 0 5 5 7 10 4 6 -3 10 1 10 10 0 9 -7 15 -17 13 -10 -2 -18 4 -19
12 0 9 1 10 3 2 3 -7 9 -10 13 -7 9 6 -37 91 -68 128 -8 9 -12 17 -8 17 4 0
-1 13 -10 29 -10 17 -22 27 -28 24 -5 -4 -7 1 -3 10 4 10 1 17 -6 18 -7 0 -20
2 -30 4 -14 3 -17 -1 -12 -13 5 -13 3 -14 -6 -5 -17 17 -2 32 26 27 19 -3 23
-1 18 11 -3 9 -12 14 -19 11 -8 -3 -14 -1 -14 3 0 5 5 11 11 13 7 2 3 17 -10
41 -12 21 -21 44 -21 52 0 8 -5 15 -11 15 -5 0 -8 4 -4 9 9 15 -8 18 -37 7z
m25 -16 c-3 -11 -9 -20 -15 -20 -5 0 -4 9 2 20 6 11 12 20 14 20 2 0 2 -9 -1
-20z m1 -57 c6 -14 -12 -29 -21 -19 -4 3 0 6 7 6 9 0 5 10 -11 26 -23 25 -23
26 -2 13 13 -7 25 -19 27 -26z m46 -33 c0 -5 -4 -10 -10 -10 -5 0 -10 5 -10
10 0 6 5 10 10 10 6 0 10 -4 10 -10z m-21 -24 c9 -10 7 -17 -6 -27 -16 -13
-17 -12 -5 3 11 14 10 18 -5 27 -10 6 -13 11 -7 11 6 0 17 -6 23 -14z m36 -75
c-3 -6 -11 -11 -16 -11 -5 0 -4 6 3 14 14 16 24 13 13 -3z m25 -21 c0 -5 -4
-10 -10 -10 -5 0 -10 5 -10 10 0 6 5 10 10 10 6 0 10 -4 10 -10z m25 -67 c-11
-7 -24 -13 -29 -12 -6 0 -5 3 2 6 6 2 10 9 7 14 -4 5 2 6 11 2 13 -5 15 -3 9
7 -6 9 -4 11 5 5 10 -6 9 -11 -5 -22z m44 -39 c14 -12 -19 -1 -35 12 -18 14
-18 14 6 3 14 -6 27 -13 29 -15z m-29 -14 c0 -5 -5 -10 -11 -10 -5 0 -7 5 -4
10 3 6 8 10 11 10 2 0 4 -4 4 -10z m47 -19 c-10 -4 -18 -11 -17 -16 1 -5 -4
-11 -12 -13 -9 -2 -8 0 2 7 8 6 11 11 7 11 -5 0 -5 5 -2 10 3 6 14 10 23 9 15
0 15 -1 -1 -8z m12 -71 c0 -10 -3 -8 -9 5 -12 27 -12 43 0 25 5 -8 9 -22 9
-30z m21 -30 c0 -5 -4 -10 -10 -10 -5 0 -10 5 -10 10 0 6 5 10 10 10 6 0 10
-4 10 -10z m40 0 c0 -5 -2 -10 -4 -10 -3 0 -8 5 -11 10 -3 6 -1 10 4 10 6 0
11 -4 11 -10z"/>
<path d="M6230 1978 c0 -6 -2 -9 -5 -6 -6 6 -41 -22 -101 -78 -18 -17 -36 -29
-40 -25 -4 3 -4 0 0 -6 4 -7 2 -21 -4 -30 -11 -17 -11 -17 -6 0 3 9 1 17 -4
17 -16 0 -22 -21 -10 -35 10 -12 7 -17 -14 -25 -25 -9 -38 -33 -15 -27 6 1 14
-5 16 -13 4 -13 3 -13 -6 0 -6 8 -11 11 -11 6 0 -6 -5 -5 -11 1 -15 15 10 53
29 45 10 -3 13 -1 8 6 -8 14 -36 16 -36 3 0 -4 -19 -21 -42 -36 -24 -16 -47
-34 -51 -42 -5 -7 -12 -11 -18 -8 -5 4 -12 -1 -15 -9 -3 -9 -10 -14 -14 -11
-4 2 -15 -4 -25 -15 -10 -11 -24 -20 -32 -20 -7 0 -13 -4 -13 -10 0 -5 5 -10
11 -10 5 0 7 -4 4 -10 -3 -6 4 -10 17 -10 18 0 20 -2 8 -10 -12 -8 -11 -10 6
-10 12 0 29 10 38 23 9 12 14 15 10 7 -5 -8 6 -4 25 10 18 14 32 27 30 30 -1
3 3 15 10 28 10 19 15 21 27 11 11 -9 23 -5 61 25 25 20 50 36 55 36 15 0 8
29 -9 39 -16 9 -16 10 4 8 12 0 19 -5 17 -9 -10 -15 21 -7 44 11 23 20 29 41
12 41 -5 0 -10 5 -10 12 0 7 7 5 18 -5 13 -11 20 -12 28 -4 6 7 25 24 43 40
36 32 39 43 11 52 -11 3 -20 11 -20 16 0 5 -4 9 -10 9 -5 0 -10 -5 -10 -12z
m12 -25 c-12 -2 -20 -9 -17 -14 4 -5 1 -9 -4 -9 -12 0 -14 13 -4 23 3 4 16 6
27 6 19 -2 19 -2 -2 -6z m38 -6 c0 -1 -13 -15 -30 -30 -16 -16 -30 -26 -30
-22 0 3 12 17 26 30 25 23 34 29 34 22z m-88 -14 c-6 -2 -9 -10 -6 -15 4 -7 2
-8 -5 -4 -13 9 -5 26 12 25 9 0 8 -2 -1 -6z m15 -32 c0 -11 -5 -18 -9 -15 -4
3 -5 11 -1 19 7 21 12 19 10 -4z m-42 -1 c-3 -5 -11 -10 -16 -10 -6 0 -7 5 -4
10 3 6 11 10 16 10 6 0 7 -4 4 -10z m-21 -51 c-3 -5 -1 -9 5 -9 5 0 12 5 14
10 3 6 4 5 3 -2 -3 -17 -31 -17 -32 0 -1 6 -2 17 -3 23 0 5 -6 7 -13 3 -7 -5
-8 -3 -3 6 6 10 11 9 21 -5 7 -10 11 -22 8 -26z m-39 -48 c3 -5 0 -13 -6 -17
-7 -4 -9 -3 -5 4 3 5 0 13 -6 15 -9 4 -10 6 -1 6 6 1 14 -3 18 -8z m-30 -21
c-3 -5 -12 -10 -18 -10 -7 0 -6 4 3 10 19 12 23 12 15 0z m-61 -50 c-6 -5 -24
21 -24 34 0 6 6 1 14 -10 8 -10 12 -21 10 -24z m-34 16 c0 -3 -4 -8 -10 -11
-5 -3 -10 -1 -10 4 0 6 5 11 10 11 6 0 10 -2 10 -4z m-26 -22 c3 -8 2 -12 -4
-9 -6 3 -10 10 -10 16 0 14 7 11 14 -7z m-40 -30 c3 -8 2 -12 -4 -9 -6 3 -10
10 -10 16 0 14 7 11 14 -7z m-24 -14 c0 -5 -4 -10 -10 -10 -5 0 -10 5 -10 10
0 6 5 10 10 10 6 0 10 -4 10 -10z m60 0 c0 -5 -2 -10 -4 -10 -3 0 -8 5 -11 10
-3 6 -1 10 4 10 6 0 11 -4 11 -10z m-90 -20 c0 -5 -4 -10 -10 -10 -5 0 -10 5
-10 10 0 6 5 10 10 10 6 0 10 -4 10 -10z m67 4 c-3 -3 -12 -4 -19 -1 -8 3 -5
6 6 6 11 1 17 -2 13 -5z m-44 -19 c-3 -9 -8 -14 -10 -11 -3 3 -2 9 2 15 9 16
15 13 8 -4z"/>
<path d="M1043 1946 l-22 -23 22 -22 c26 -24 46 -29 27 -6 -9 10 -9 15 -1 15
6 0 11 -3 12 -7 3 -31 10 -48 19 -51 6 -2 20 -13 30 -24 10 -11 23 -17 29 -13
7 3 10 3 9 -2 -4 -11 47 -63 60 -63 6 0 13 -7 16 -16 3 -8 10 -13 15 -10 5 3
12 -1 15 -10 3 -8 11 -12 17 -8 8 4 7 9 -2 16 -11 8 -11 9 1 5 8 -2 14 -10 12
-17 -3 -14 43 -57 71 -66 9 -3 17 -10 17 -15 0 -6 5 -7 10 -4 6 3 10 1 10 -6
0 -7 3 -10 6 -6 3 3 15 -3 27 -13 20 -19 20 -19 44 12 25 34 28 42 14 33 -5
-3 -17 5 -26 17 l-16 23 3 -25 c2 -17 -2 -26 -16 -28 -25 -5 -36 9 -25 33 9
18 9 18 5 -2 -3 -17 1 -23 15 -23 13 0 17 5 12 18 -10 27 -42 54 -56 46 -6 -4
-9 -4 -5 1 9 10 -35 45 -56 45 -9 0 -16 -5 -16 -12 0 -6 -3 -8 -7 -4 -5 4 1
14 11 22 17 12 18 14 3 14 -9 0 -17 5 -17 10 0 6 -6 10 -13 10 -7 0 -20 9 -30
20 -9 11 -24 20 -32 20 -9 0 -14 4 -10 9 3 5 -3 12 -14 16 -11 3 -22 12 -25
20 -3 8 -10 15 -16 15 -15 0 -41 26 -33 34 4 3 -1 6 -10 6 -9 0 -17 -4 -17
-10 0 -5 -5 -10 -12 -10 -9 0 -9 3 0 12 17 17 15 28 -4 28 -8 0 -12 5 -9 10
12 20 -20 9 -42 -14z m44 -12 c-3 -3 -12 -4 -19 -1 -8 3 -5 6 6 6 11 1 17 -2
13 -5z m-37 -14 c0 -5 -2 -10 -4 -10 -3 0 -8 5 -11 10 -3 6 -1 10 4 10 6 0 11
-4 11 -10z m88 -32 c14 -14 16 -38 2 -38 -5 0 -7 7 -3 16 5 14 3 15 -18 5 -22
-11 -22 -11 -6 3 18 14 18 14 0 19 -13 3 -14 5 -2 6 8 0 20 -4 27 -11z m42
-51 c-4 -5 -16 -7 -26 -4 -16 4 -16 5 3 6 16 1 20 6 17 24 -4 20 -4 20 5 2 5
-11 5 -24 1 -28z m40 -17 c8 -5 11 -10 5 -10 -5 0 -17 5 -25 10 -8 5 -10 10
-5 10 6 0 17 -5 25 -10z m-15 -21 c11 -16 1 -19 -13 -3 -7 8 -8 14 -3 14 5 0
13 -5 16 -11z m55 -3 c-1 -5 4 -13 12 -18 10 -8 10 -9 -2 -5 -8 2 -14 10 -12
16 2 12 -11 15 -21 4 -4 -3 -2 -12 5 -20 6 -7 8 -16 4 -20 -3 -3 -6 -1 -6 6 0
7 -4 10 -9 7 -11 -7 -9 13 3 32 8 14 29 12 26 -2z m45 -26 c3 -5 -9 -16 -27
-25 -29 -14 -30 -14 -14 0 11 8 24 15 29 15 4 0 5 5 2 10 -3 6 -4 10 -1 10 3
0 7 -4 11 -10z m39 -61 c4 6 15 11 24 10 12 0 11 -3 -5 -9 -23 -9 -33 -32 -12
-27 6 1 14 -5 16 -13 4 -13 3 -13 -6 0 -6 8 -11 11 -11 5 -1 -13 -30 26 -30
39 0 6 4 5 9 -3 6 -9 11 -10 15 -2z m66 -31 c0 -5 -9 -4 -20 2 -11 6 -20 12
-20 14 0 2 9 2 20 -1 11 -3 20 -9 20 -15z m-15 -18 c3 -5 1 -10 -4 -10 -6 0
-11 5 -11 10 0 6 2 10 4 10 3 0 8 -4 11 -10z m85 -35 c-7 -8 -17 -15 -23 -15
-6 0 -2 7 9 15 25 19 30 19 14 0z"/>
<path d="M5976 1705 c-3 -8 -1 -17 3 -20 5 -3 11 2 15 10 3 8 1 17 -3 20 -5 3
-11 -2 -15 -10z"/>
<path d="M3547 1590 c-114 -29 -217 -114 -272 -226 -33 -66 -38 -87 -41 -160
-2 -46 1 -95 6 -109 7 -19 6 -25 -4 -25 -7 0 -13 -7 -13 -15 0 -9 6 -14 14
-11 8 4 11 1 8 -5 -9 -14 -30 -6 -30 12 -1 8 -6 13 -13 11 -7 -1 -12 4 -12 10
0 7 -8 1 -17 -12 -10 -14 -17 -29 -15 -34 2 -5 -4 -4 -12 4 -9 7 -16 18 -15
24 0 6 3 6 6 -2 4 -10 8 -10 19 -1 20 17 17 24 -9 24 -26 0 -34 -29 -15 -52 8
-11 7 -12 -8 -7 -18 5 -18 5 -1 -6 10 -7 21 -9 24 -6 3 3 14 1 24 -5 13 -7 19
-6 19 1 0 6 5 8 11 5 5 -4 25 -9 42 -12 18 -3 35 -10 39 -16 80 -130 205 -207
347 -212 81 -3 145 11 216 46 53 27 132 99 160 147 11 18 23 33 27 33 20 3 24
5 37 13 10 7 12 6 6 -4 -6 -10 -4 -12 11 -6 10 5 39 9 64 9 45 2 67 20 50 42
-5 6 -8 15 -7 20 1 6 -9 12 -23 13 l-25 4 24 -26 c20 -21 22 -29 12 -39 -10
-9 -11 -9 -6 3 4 11 -1 16 -15 16 -13 0 -19 -5 -16 -13 3 -7 1 -13 -5 -13 -6
0 -9 8 -7 18 2 11 11 16 23 13 20 -3 20 -3 0 19 -17 19 -21 20 -23 6 -2 -9 -8
-16 -13 -16 -6 0 -8 4 -5 9 3 5 -1 11 -9 15 -8 3 -15 1 -15 -3 0 -5 -9 -7 -19
-4 -16 4 -18 9 -11 28 5 13 8 59 6 102 -5 135 -62 243 -171 323 -30 22 -56 40
-59 40 -3 0 -17 5 -33 12 -44 18 -53 19 -138 23 -44 2 -97 0 -118 -5z m-355
-547 c-6 -2 -10 -9 -7 -13 3 -5 1 -11 -4 -14 -7 -5 -8 11 -2 32 1 1 7 2 14 1
9 0 9 -2 -1 -6z m918 -8 c11 -13 10 -14 -4 -9 -9 3 -16 10 -16 15 0 13 6 11
20 -6z m-50 -16 c0 -5 -4 -9 -8 -9 -5 0 -9 7 -9 15 0 8 4 12 9 9 4 -3 8 -9 8
-15z m-835 -7 c-3 -3 -11 0 -18 7 -9 10 -8 11 6 5 10 -3 15 -9 12 -12z"/>
<path d="M5267 1366 c-4 -9 -14 -12 -26 -9 -13 3 -21 1 -21 -6 0 -7 -4 -10 -9
-6 -5 3 -13 0 -17 -6 -5 -8 -3 -9 6 -4 8 5 11 4 7 -3 -4 -5 -16 -8 -26 -5 -19
5 -35 -11 -36 -36 0 -8 -8 -15 -18 -17 -9 -1 -15 1 -13 4 2 4 -2 13 -10 20
-10 10 -14 10 -14 1 0 -7 -3 -9 -7 -6 -3 4 -12 -1 -20 -11 -8 -9 -12 -11 -8
-5 4 8 1 11 -7 8 -8 -3 -14 -14 -15 -25 -2 -21 12 -27 20 -10 3 6 4 5 3 -2 -4
-19 -31 -16 -31 4 0 9 -4 20 -8 24 -4 4 -7 2 -7 -5 0 -7 -4 -10 -9 -7 -5 3
-12 -1 -15 -10 -5 -12 -2 -15 9 -10 9 3 13 2 10 -4 -3 -6 -1 -10 6 -10 7 0 10
-3 7 -6 -10 -9 -49 16 -43 27 9 13 -9 11 -41 -5 -15 -8 -31 -13 -36 -10 -4 3
-8 1 -8 -5 0 -6 -7 -7 -17 -4 -11 4 -14 3 -9 -6 5 -8 3 -12 -5 -10 -29 3 -40
-1 -33 -13 5 -8 0 -7 -11 2 -17 14 -18 13 -12 -5 7 -20 7 -20 -8 -1 -15 19
-15 19 -14 -5 0 -13 3 -31 7 -39 8 -17 42 -26 42 -11 0 5 8 10 18 10 41 0 77
11 88 25 13 18 29 22 18 5 -5 -8 -1 -8 13 0 11 6 23 7 27 4 3 -3 6 -1 6 6 0 8
-6 11 -16 7 -8 -3 -12 -2 -9 3 3 6 14 9 25 8 10 -1 16 -5 14 -9 -9 -14 30 5
44 21 8 9 11 11 8 4 -4 -7 1 -10 11 -8 10 2 20 4 22 4 3 1 -4 8 -15 16 -18 14
-17 15 7 4 21 -9 36 -7 80 12 30 13 61 31 69 39 8 9 11 10 6 3 -11 -17 -4 -16
39 4 23 11 34 22 30 31 -3 7 -5 18 -5 23 0 6 -4 7 -10 4 -5 -3 -10 1 -10 9 0
20 -16 21 -23 2z m43 -42 c0 -2 -8 -1 -17 4 -18 9 -79 -9 -68 -20 3 -3 -6 -13
-19 -22 -24 -15 -26 -15 -36 5 -7 11 -9 23 -6 27 3 3 6 0 6 -7 0 -7 4 -9 10
-6 6 4 7 -1 3 -10 -5 -15 -3 -15 15 -4 11 7 19 17 16 21 -8 13 59 36 79 26 9
-5 17 -11 17 -14z m-20 -8 c0 -3 -4 -8 -10 -11 -5 -3 -10 -1 -10 4 0 6 5 11
10 11 6 0 10 -2 10 -4z m-186 -51 c3 -8 1 -15 -4 -15 -6 0 -10 7 -10 15 0 8 2
15 4 15 2 0 6 -7 10 -15z m66 1 c0 -2 -7 -7 -16 -10 -8 -3 -12 -2 -9 4 6 10
25 14 25 6z m-200 -46 c0 -5 -8 -10 -17 -10 -15 0 -16 2 -3 10 19 12 20 12 20
0z m-62 -11 c-2 -6 -7 -10 -12 -9 -5 1 -13 -4 -18 -12 -8 -10 -9 -10 -5 2 2 8
10 14 16 13 6 -2 11 2 11 7 0 6 3 10 6 10 3 0 4 -5 2 -11z m19 -18 c0 -11 -5
-18 -9 -15 -4 3 -5 11 -1 19 7 21 12 19 10 -4z m-67 -26 c0 -5 -5 -3 -10 5 -5
8 -10 20 -10 25 0 6 5 3 10 -5 5 -8 10 -19 10 -25z m-36 -5 c-6 -6 -15 -5 -24
1 -13 9 -12 10 3 5 9 -3 17 0 17 6 0 6 3 8 7 5 4 -4 2 -12 -3 -17z"/>
<path d="M2020 1354 c-7 -7 -10 -23 -7 -34 3 -11 1 -18 -4 -14 -5 3 -9 0 -9
-5 0 -6 7 -11 15 -11 9 0 29 -7 45 -15 16 -9 31 -11 35 -6 3 5 -3 11 -12 14
-14 3 -13 4 2 3 11 -1 19 -7 18 -13 -2 -10 37 -40 45 -35 1 1 18 -5 38 -13 20
-8 42 -15 50 -15 7 0 16 -5 19 -10 5 -8 11 -8 20 0 9 8 14 7 18 -3 3 -8 23
-19 44 -24 34 -9 39 -8 39 9 0 21 -7 23 -26 6 -12 -11 -12 -10 -1 5 11 14 11
17 0 17 -10 1 -8 4 4 11 9 5 17 15 17 21 0 7 -5 7 -14 -1 -11 -9 -16 -9 -22 0
-5 8 -3 9 6 4 9 -5 11 -4 6 4 -4 6 -11 9 -16 6 -5 -3 -21 2 -35 11 -14 9 -28
14 -32 11 -3 -4 -14 0 -25 7 -11 8 -29 11 -40 8 -15 -4 -19 -2 -13 7 6 10 2
11 -15 6 -17 -5 -21 -4 -15 6 6 9 3 11 -8 6 -10 -4 -17 -1 -17 5 0 6 -3 8 -7
5 -3 -4 -12 1 -20 11 -8 9 -12 11 -8 4 4 -7 -8 -4 -29 7 -30 17 -36 18 -46 5z
m20 -9 c0 -8 -4 -15 -10 -15 -5 0 -7 7 -4 15 4 8 8 15 10 15 2 0 4 -7 4 -15z
m26 -12 c-4 -4 13 -15 36 -24 24 -10 38 -18 32 -18 -23 -2 -85 30 -79 39 3 6
9 10 12 10 4 0 3 -3 -1 -7z m-18 -38 c-3 -3 -9 2 -12 12 -6 14 -5 15 5 6 7 -7
10 -15 7 -18z m122 -15 c0 -5 -4 -10 -10 -10 -5 0 -10 5 -10 10 0 6 5 10 10
10 6 0 10 -4 10 -10z m55 0 c3 -5 1 -10 -4 -10 -6 0 -11 5 -11 10 0 6 2 10 4
10 3 0 8 -4 11 -10z m-35 -20 c-8 -5 -19 -10 -25 -10 -5 0 -3 5 5 10 8 5 20
10 25 10 6 0 3 -5 -5 -10z m101 -14 c6 3 13 -3 16 -15 3 -12 9 -21 14 -21 5 0
9 -4 9 -10 0 -20 -20 -9 -26 15 -3 13 -11 23 -17 22 -6 -1 -12 5 -12 13 -1 8
0 9 2 2 3 -7 9 -9 14 -6z m-41 4 c0 -5 -7 -7 -15 -4 -8 4 -15 8 -15 10 0 2 7
4 15 4 8 0 15 -4 15 -10z m-40 -10 c0 -5 -4 -10 -10 -10 -5 0 -10 5 -10 10 0
6 5 10 10 10 6 0 10 -4 10 -10z m60 -20 c0 -5 -4 -10 -10 -10 -5 0 -10 5 -10
10 0 6 5 10 10 10 6 0 10 -4 10 -10z"/>
<path d="M5116 1311 c-3 -5 1 -14 9 -21 11 -9 14 -8 12 9 -1 22 -12 28 -21 12z"/>
<path d="M2371 1226 c-9 -10 -8 -15 4 -19 8 -4 13 -12 10 -19 -7 -19 6 -34 37
-41 17 -5 28 -3 31 6 3 7 6 5 6 -5 1 -10 6 -18 12 -18 6 0 8 7 5 16 -3 8 -2
12 4 9 6 -3 10 -12 10 -20 0 -10 5 -11 24 -2 25 12 26 30 2 21 -19 -7 -27 9
-14 26 8 12 9 12 5 -2 -4 -12 0 -16 13 -15 11 1 22 7 24 13 4 10 -12 18 -59
30 -5 1 -17 3 -25 5 -10 3 -15 -5 -15 -23 -1 -15 -4 -30 -7 -34 -4 -3 -5 11
-4 31 3 31 0 38 -21 46 -31 11 -28 12 -42 -5z m49 -12 c0 -2 -7 -4 -15 -4 -8
0 -15 4 -15 10 0 5 7 7 15 4 8 -4 15 -8 15 -10z m0 -34 c0 -5 -4 -10 -10 -10
-5 0 -10 5 -10 10 0 6 5 10 10 10 6 0 10 -4 10 -10z m65 0 c-3 -5 -12 -10 -18
-10 -7 0 -6 4 3 10 19 12 23 12 15 0z"/>
<path d="M2510 1119 c0 -5 5 -7 10 -4 6 3 10 8 10 11 0 2 -4 4 -10 4 -5 0 -10
-5 -10 -11z"/>
</g>
</svg>
